HIERARCHY
ROOT hip
{
  OFFSET 0 0 0
  CHANNELS 6 Xposition Yposition Zposition Zrotation Yrotation Xrotation
  JOINT abdomen
  {
    OFFSET 0 20.6881 -0.73152
    CHANNELS 3 Zrotation Xrotation Yrotation
    JOINT chest
    {
      OFFSET 0 11.7043 -0.48768
      CHANNELS 3 Zrotation Xrotation Yrotation
      JOINT neck
      {
        OFFSET 0 22.1894 -2.19456
        CHANNELS 3 Zrotation Xrotation Yrotation
        JOINT head
        {
          OFFSET -0.24384 7.07133 1.2192
          CHANNELS 3 Zrotation Xrotation Yrotation
          JOINT leftEye
          {
            OFFSET 4.14528 8.04674 8.04672
            CHANNELS 3 Zrotation Xrotation Yrotation
            End Site
            {
              OFFSET 1 0 0
            }
          }
          JOINT rightEye
          {
            OFFSET -3.6576 8.04674 8.04672
            CHANNELS 3 Zrotation Xrotation Yrotation
            End Site
            {
              OFFSET 1 0 0
            }
          }
        }
      }
      JOINT rCollar
      {
        OFFSET -2.68224 19.2634 -4.8768
        CHANNELS 3 Zrotation Xrotation Yrotation
        JOINT rShldr
        {
          OFFSET -8.77824 -1.95073 1.46304
          CHANNELS 3 Zrotation Xrotation Yrotation
          JOINT rForeArm
          {
            OFFSET -28.1742 -1.7115 0.48768
            CHANNELS 3 Zrotation Xrotation Yrotation
            JOINT rHand
            {
              OFFSET -22.5879 0.773209 7.07136
              CHANNELS 3 Zrotation Xrotation Yrotation
              JOINT rThumb1
              {
                OFFSET -1.2192 -0.487915 3.41376
                CHANNELS 3 Zrotation Xrotation Yrotation
                JOINT rThumb2
                {
                  OFFSET -3.37035 -0.52449 3.41376
                  CHANNELS 3 Zrotation Xrotation Yrotation
                  End Site
                  {
                    OFFSET -1.78271 -1.18214 1.43049
                  }
                }
              }
              JOINT rIndex1
              {
                OFFSET -7.75947 0.938293 5.60832
                CHANNELS 3 Zrotation Xrotation Yrotation
                JOINT rIndex2
                {
                  OFFSET -2.54057 -0.884171 1.56538
                  CHANNELS 3 Zrotation Xrotation Yrotation
                  End Site
                  {
                    OFFSET -1.62519 -0.234802 1.16502
                  }
                }
              }
              JOINT rMid1
              {
                OFFSET -8.24714 1.18213 3.41376
                CHANNELS 3 Zrotation Xrotation Yrotation
                JOINT rMid2
                {
                  OFFSET -3.10165 -0.590103 1.0647
                  CHANNELS 3 Zrotation Xrotation Yrotation
                  End Site
                  {
                    OFFSET -2.48547 -0.328903 0.83742
                  }
                }
              }
              JOINT rRing1
              {
                OFFSET -8.82822 0.546677 1.51678
                CHANNELS 3 Zrotation Xrotation Yrotation
                JOINT rRing2
                {
                  OFFSET -2.60934 -0.819778 -0.0198488
                  CHANNELS 3 Zrotation Xrotation Yrotation
                  End Site
                  {
                    OFFSET -2.33842 -0.294052 0.168128
                  }
                }
              }
              JOINT rPinky1
              {
                OFFSET -8.27202 -0.0477905 -0.4584
                CHANNELS 3 Zrotation Xrotation Yrotation
                JOINT rPinky2
                {
                  OFFSET -1.82734 -0.647385 -0.700984
                  CHANNELS 3 Zrotation Xrotation Yrotation
                  End Site
                  {
                    OFFSET -1.69225 -0.51767 -0.607171
                  }
                }
              }
            }
          }
        }
      }
      JOINT lCollar
      {
        OFFSET 2.68224 19.2634 -4.8768
        CHANNELS 3 Zrotation Xrotation Yrotation
        JOINT lShldr
        {
          OFFSET 8.77824 -1.95073 1.46304
          CHANNELS 3 Zrotation Xrotation Yrotation
          JOINT lForeArm
          {
            OFFSET 28.1742 -1.7115 0.48768
            CHANNELS 3 Zrotation Xrotation Yrotation
            JOINT lHand
            {
              OFFSET 22.5879 0.773209 7.07136
              CHANNELS 3 Zrotation Xrotation Yrotation
              JOINT lThumb1
              {
                OFFSET 1.2192 -0.487915 3.41376
                CHANNELS 3 Zrotation Xrotation Yrotation
                JOINT lThumb2
                {
                  OFFSET 3.37035 -0.52449 3.41376
                  CHANNELS 3 Zrotation Xrotation Yrotation
                  End Site
                  {
                    OFFSET 1.78271 -1.18214 1.43049
                  }
                }
              }
              JOINT lIndex1
              {
                OFFSET 7.75947 0.938293 5.60832
                CHANNELS 3 Zrotation Xrotation Yrotation
                JOINT lIndex2
                {
                  OFFSET 2.54057 -0.884171 1.56538
                  CHANNELS 3 Zrotation Xrotation Yrotation
                  End Site
                  {
                    OFFSET 1.62519 -0.234802 1.16502
                  }
                }
              }
              JOINT lMid1
              {
                OFFSET 8.24714 1.18213 3.41376
                CHANNELS 3 Zrotation Xrotation Yrotation
                JOINT lMid2
                {
                  OFFSET 3.10165 -0.590103 1.0647
                  CHANNELS 3 Zrotation Xrotation Yrotation
                  End Site
                  {
                    OFFSET 2.48547 -0.328903 0.83742
                  }
                }
              }
              JOINT lRing1
              {
                OFFSET 8.82822 0.546677 1.51678
                CHANNELS 3 Zrotation Xrotation Yrotation
                JOINT lRing2
                {
                  OFFSET 2.60934 -0.819778 -0.0198488
                  CHANNELS 3 Zrotation Xrotation Yrotation
                  End Site
                  {
                    OFFSET 2.33842 -0.294052 0.168128
                  }
                }
              }
              JOINT lPinky1
              {
                OFFSET 8.27202 -0.0477905 -0.4584
                CHANNELS 3 Zrotation Xrotation Yrotation
                JOINT lPinky2
                {
                  OFFSET 1.82734 -0.647385 -0.700984
                  CHANNELS 3 Zrotation Xrotation Yrotation
                  End Site
                  {
                    OFFSET 1.69225 -0.51767 -0.607171
                  }
                }
              }
            }
          }
        }
      }
    }
  }
  JOINT rButtock
  {
    OFFSET -8.77824 4.35084 1.2192
    CHANNELS 3 Zrotation Xrotation Yrotation
    JOINT rThigh
    {
      OFFSET 0 -1.70687 -2.19456
      CHANNELS 3 Zrotation Xrotation Yrotation
      JOINT rShin
      {
        OFFSET 0 -36.8199 0.73152
        CHANNELS 3 Zrotation Xrotation Yrotation
        JOINT rFoot
        {
          OFFSET 0.73152 -45.1104 -5.12064
          CHANNELS 3 Zrotation Xrotation Yrotation
          End Site
          {
            OFFSET -1.1221 -3.69964 12.103
          }
        }
      }
    }
  }
  JOINT lButtock
  {
    OFFSET 8.77824 4.35084 1.2192
    CHANNELS 3 Zrotation Xrotation Yrotation
    JOINT lThigh
    {
      OFFSET 0 -1.70687 -2.19456
      CHANNELS 3 Zrotation Xrotation Yrotation
      JOINT lShin
      {
        OFFSET 0 -36.8199 0.73152
        CHANNELS 3 Zrotation Xrotation Yrotation
        JOINT lFoot
        {
          OFFSET -0.73152 -45.1104 -5.12064
          CHANNELS 3 Zrotation Xrotation Yrotation
          End Site
          {
            OFFSET 1.1221 -3.69964 12.103
          }
        }
      }
    }
  }
}
MOTION
Frames:	4
Frame Time:	0.03333
-16.95143394162052 61.11626631589647 75.68953433649196 -10.421238899230957 -29.35350227355957 6.680081844329834 6.791041851043701 9.974405288696289 5.537355422973633 0.08005311340093613 -6.036028861999512 1.3127514123916626 -0.25435617566108704 13.38400936126709 3.9752442836761475 2.7141714096069336 -25.982473373413086 8.871688842773438 0.03863868489861488 0.07885816693305969 -0.08214150369167328 0.026182187721133232 -0.08049856871366501 -0.09723435342311859 -0.0693705752491951 0.06744995713233948 -0.12182243168354034 69.44867706298828 43.75691604614258 -19.326234817504883 -27.877870559692383 -40.23329544067383 84.7078857421875 -0.06019911170005798 4.843472003936768 0.6849501729011536 0.07681283354759216 -0.002624345477670431 0.14643986523151398 -0.0756274163722992 0.030933136120438576 -0.06543125212192535 -0.049532316625118256 0.197736456990242 0.0717359334230423 7.692974090576172 5.391025066375732 0.28613942861557007 0.2049814611673355 -0.3130114674568176 -0.005337515380233526 2.983427047729492 0.9526488184928894 0.07070861011743546 -0.18136265873908997 -0.05921559035778046 0.06776600331068039 10.42297077178955 0.6159460544586182 0.0018288352293893695 0.14769788086414337 -0.12302339822053909 0.018758945167064667 2.1965079307556152 -0.7324624061584473 -0.18840228021144867 -0.08020886033773422 0.05199063569307327 -0.06201981008052826 -55.21562957763672 34.85787582397461 -24.640745162963867 28.27687644958496 -40.13789749145508 -83.86392211914062 0.6699366569519043 -23.81068229675293 3.4332199096679688 -0.04305047541856766 -0.13005349040031433 0.020557446405291557 -0.04128755256533623 0.052394360303878784 0.013941706158220768 -0.08138811588287354 -0.021816061809659004 -0.08270455151796341 -7.684130668640137 5.7202067375183105 -0.45866987109184265 -0.06842432916164398 0.06416844576597214 -0.13338738679885864 -2.8466367721557617 0.8948493003845215 -0.17205046117305756 -0.05635524541139603 -0.161736860871315 0.051666948944330215 -10.194772720336914 0.7319031953811646 -0.06293804198503494 -0.0762256607413292 -0.12066421657800674 0.06510905176401138 -2.0562286376953125 -0.7869378924369812 0.3689090609550476 0.09894455224275589 0.1393006145954132 -0.057766981422901154 -5.626327991485596 -6.2548933029174805 -6.2314605712890625 -0.1896742284297943 49.793148040771484 2.0027856826782227 -13.590415000915527 -20.719497680664062 -33.509124755859375 0.029463674873113632 -0.026502950116991997 0.037273213267326355 49.3286247253418 -52.20988082885742 44.403263092041016 0.8524725437164307 56.11156463623047 -0.4916870594024658 0.12634943425655365 6.324207782745361 -0.7470320463180542
-17.016562570120943 60.874648374007265 76.09129673564269 -10.944581031799316 -28.301923751831055 6.98574686050415 7.336757659912109 9.53124713897705 5.838220119476318 -0.023684846237301826 -6.06309700012207 1.4050235748291016 -0.31496500968933105 13.344154357910156 3.743549108505249 2.9110281467437744 -25.811491012573242 8.42164134979248 0.03267098590731621 0.08525726199150085 -0.07773848623037338 0.013448981568217278 -0.08207978308200836 -0.10493959486484528 -0.07903064042329788 0.07662247121334076 -0.1300748735666275 69.7310791015625 44.107452392578125 -19.111175537109375 -27.87613296508789 -40.3096809387207 84.77973175048828 -0.035122208297252655 4.864254474639893 0.6665434837341309 0.07330179959535599 -0.007803470827639103 0.14322729408740997 -0.07351593673229218 0.04771886765956879 -0.0668298676609993 -0.04944949224591255 0.19267338514328003 0.06302277743816376 7.699709892272949 5.392977714538574 0.2854243218898773 0.1958661675453186 -0.30192041397094727 -0.0139309698715806 2.9769859313964844 0.9479280114173889 0.08435896039009094 -0.17894360423088074 -0.052308809012174606 0.06398353725671768 10.429717063903809 0.6278866529464722 0.008538576774299145 0.15280860662460327 -0.1315518468618393 0.0037684631533920765 2.208996057510376 -0.727283775806427 -0.20406396687030792 -0.07550784200429916 0.05574973672628403 -0.07281718403100967 -54.89018630981445 35.00180435180664 -25.289152145385742 28.31801414489746 -40.06205368041992 -83.66278076171875 0.6657741069793701 -23.74272346496582 3.4363090991973877 -0.048642970621585846 -0.14083774387836456 0.037823453545570374 -0.03923327848315239 0.0689396932721138 0.008016972802579403 -0.07525085657835007 -0.01614842563867569 -0.10871300846338272 -7.697643756866455 5.720880031585693 -0.46150681376457214 -0.08007323741912842 0.0668557807803154 -0.1257857233285904 -2.8454105854034424 0.9141506552696228 -0.1623818576335907 -0.05731584504246712 -0.16179494559764862 0.028749825432896614 -10.179574966430664 0.7382431030273438 -0.05815938487648964 -0.0703943595290184 -0.12345115840435028 0.0718977302312851 -2.062500238418579 -0.7816800475120544 0.35242897272109985 0.1099376305937767 0.1287686675786972 -0.06999847292900085 -5.180400848388672 -5.237610340118408 -6.435144424438477 -0.17810100317001343 48.839569091796875 2.045030117034912 -13.770713806152344 -20.853015899658203 -33.811683654785156 0.04163379222154617 -0.017784642055630684 0.02780798077583313 50.59845733642578 -52.755897521972656 45.622802734375 0.9184140563011169 57.04108428955078 -0.5531241297721863 0.21665899455547333 5.475963592529297 -0.987526535987854
-17.078596535957967 60.64398605554676 76.46559569119273 -11.45616340637207 -27.394922256469727 7.308638572692871 7.8664045333862305 9.10786247253418 6.137031078338623 -0.13741165399551392 -6.080399513244629 1.499422550201416 -0.37090635299682617 13.306469917297363 3.5374133586883545 3.0749096870422363 -25.62791633605957 8.012986183166504 0.027253055945038795 0.09057936817407608 -0.07586345076560974 0.0020667186472564936 -0.0846986398100853 -0.1110447570681572 -0.08404920995235443 0.08305501937866211 -0.1385723501443863 69.97315216064453 44.49319839477539 -18.866058349609375 -27.87162971496582 -40.37703323364258 84.84393310546875 -0.012650941498577595 4.908811092376709 0.6516035199165344 0.06830494105815887 -0.013775341212749481 0.13788913190364838 -0.07005735486745834 0.06083451956510544 -0.06512301415205002 -0.049584273248910904 0.1881147176027298 0.05699676647782326 7.708267688751221 5.394042491912842 0.28753662109375 0.1843460351228714 -0.2838085889816284 -0.02148592285811901 2.971501588821411 0.940930187702179 0.09528475254774094 -0.17751583456993103 -0.045202579349279404 0.05809241905808449 10.43209457397461 0.6404536962509155 0.018353678286075592 0.15743161737918854 -0.14044703543186188 -0.009074093773961067 2.222412109375 -0.7197707295417786 -0.21853527426719666 -0.06958777457475662 0.05837015062570572 -0.07990299165248871 -54.65624237060547 35.113460540771484 -25.8309326171875 28.34565544128418 -39.98826217651367 -83.47930908203125 0.6613723635673523 -23.69544792175293 3.44307804107666 -0.051922544836997986 -0.15102516114711761 0.05328361317515373 -0.03649425879120827 0.08167674392461777 0.00032932599424384534 -0.07054612040519714 -0.011513562873005867 -0.12893801927566528 -7.708999156951904 5.717456340789795 -0.46448084712028503 -0.08828020095825195 0.06666351854801178 -0.11571435630321503 -2.8460206985473633 0.930885910987854 -0.15130753815174103 -0.059293244034051895 -0.1628497838973999 0.004876516759395599 -10.163804054260254 0.7440227270126343 -0.05449676886200905 -0.06650195270776749 -0.12561070919036865 0.07854747027158737 -2.0706686973571777 -0.7731407284736633 0.33706557750701904 0.11838792264461517 0.11778906732797623 -0.08093029260635376 -4.745820999145508 -4.324347019195557 -6.664120197296143 -0.16751712560653687 47.974021911621094 2.0919697284698486 -13.947638511657715 -20.976526260375977 -34.09891128540039 0.05393853411078453 -0.01249303575605154 0.017816785722970963 51.87630081176758 -53.2672233581543 46.805213928222656 0.9892890453338623 57.963836669921875 -0.6185215711593628 0.2891407907009125 4.717716693878174 -1.1882069110870361
-17.138400605113542 60.42432717183915 76.81180213204738 -11.943633079528809 -26.612640380859375 7.637613296508789 8.37342643737793 8.708089828491211 6.430009841918945 -0.25727811455726624 -6.089594841003418 1.5934748649597168 -0.4233510494232178 13.269123077392578 3.3536410331726074 3.2070345878601074 -25.437631607055664 7.641854763031006 0.022098811343312263 0.09480201452970505 -0.07647709548473358 -0.007331192027777433 -0.08843715488910675 -0.11472879350185394 -0.0860673189163208 0.08715898543596268 -0.14788629114627838 70.17402648925781 44.89582061767578 -18.59592628479004 -27.863861083984375 -40.43063735961914 84.896240234375 0.006515862885862589 4.965522289276123 0.6408727765083313 0.06265151500701904 -0.019677696749567986 0.13011644780635834 -0.06559917330741882 0.07088589668273926 -0.06056154519319534 -0.04945962131023407 0.1843218356370926 0.053657498210668564 7.718308448791504 5.394680023193359 0.2925020158290863 0.17183548212051392 -0.2603420913219452 -0.02740023471415043 2.9661290645599365 0.9341166019439697 0.10473428666591644 -0.17773784697055817 -0.03878991678357124 0.050935957580804825 10.430338859558105 0.6526600122451782 0.030745215713977814 0.16073673963546753 -0.1489723026752472 -0.0190608948469162 2.2361323833465576 -0.7094277739524841 -0.2316359430551529 -0.06351976841688156 0.0599919930100441 -0.08343248814344406 -54.506492614746094 35.20174789428711 -26.270633697509766 28.361276626586914 -39.9155158996582 -83.31236267089844 0.6557798981666565 -23.670625686645508 3.4537041187286377 -0.05321154370903969 -0.16120843589305878 0.06816756725311279 -0.03337504714727402 0.09124299883842468 -0.008551928214728832 -0.06738538295030594 -0.007885736413300037 -0.14314237236976624 -7.718516826629639 5.7112860679626465 -0.46668359637260437 -0.09300661087036133 0.06435798853635788 -0.10373126715421677 -2.8482043743133545 0.9447087049484253 -0.14024505019187927 -0.061640627682209015 -0.16502994298934937 -0.018473971635103226 -10.148283958435059 0.7494781613349915 -0.05195014551281929 -0.06447214633226395 -0.12738613784313202 0.08489159494638443 -2.0806307792663574 -0.7616297602653503 0.3240022659301758 0.12495382875204086 0.10674981772899628 -0.08971777558326721 -4.324292182922363 -3.5165019035339355 -6.913155555725098 -0.15662142634391785 47.20824432373047 2.138341188430786 -14.119085311889648 -21.083436965942383 -34.36677932739258 0.06547313183546066 -0.009827986359596252 0.00743579026311636 53.121089935302734 -53.75020980834961 47.925662994384766 1.0628788471221924 58.865753173828125 -0.6860606670379639 0.3476296067237854 4.033667087554932 -1.361236333847046
